<?xml version="1.0" standalone="no"?><!DOCTYPE svg PUBLIC "-//W3C//DTD SVG 1.1//EN" "http://www.w3.org/Graphics/SVG/1.1/DTD/svg11.dtd"><svg t="1741690458645" class="icon" viewBox="0 0 1024 1024" version="1.1" xmlns="http://www.w3.org/2000/svg" p-id="53801" xmlns:xlink="http://www.w3.org/1999/xlink" width="200" height="200"><path d="M939.323077 311.138462c-108.307692-120.123077-261.907692-187.076923-425.353846-187.076924S196.923077 191.015385 88.615385 311.138462c-7.876923 7.876923-5.907692 21.661538 1.96923 27.56923l59.076923 51.2c7.876923 7.876923 19.692308 5.907692 27.569231-1.96923 86.646154-92.553846 208.738462-145.723077 336.738462-145.723077s250.092308 53.169231 336.738461 145.723077c7.876923 7.876923 19.692308 7.876923 27.569231 1.96923l59.076923-51.2c7.876923-7.876923 9.846154-19.692308 1.969231-27.56923z m-425.353846 88.615384c-82.707692 0-161.476923 35.446154-216.615385 98.461539-7.876923 7.876923-5.907692 21.661538 1.969231 29.538461l63.015385 47.261539c7.876923 5.907692 19.692308 5.907692 25.6-1.969231 33.476923-35.446154 78.769231-55.138462 126.030769-55.138462s92.553846 19.692308 124.061538 53.169231c5.907692 7.876923 17.723077 7.876923 25.6 1.969231l63.015385-47.261539c9.846154-7.876923 9.846154-19.692308 1.969231-29.538461-53.169231-61.046154-131.938462-96.492308-214.646154-96.492308z m1.969231 273.723077c53.169231 0 98.461538 43.323077 98.461538 98.461539s-43.323077 98.461538-98.461538 98.461538-98.461538-43.323077-98.461539-98.461538 45.292308-98.461538 98.461539-98.461539z" fill="#FFFFFF" p-id="53802"></path></svg>